<svg width="500" height="500" viewBox="0 0 500 500" fill="none" xmlns="http://www.w3.org/2000/svg">
<circle cx="250" cy="250" r="250" fill="#001834"/>
<path d="M160.8 238V273H150.9V259.35H137.4V273H127.5V238H137.4V251.15H150.9V238H160.8ZM167.783 238H177.683V273H167.783V238ZM184.727 238H201.277C205.11 238 208.51 238.717 211.477 240.15C214.443 241.583 216.743 243.617 218.377 246.25C220.01 248.883 220.827 251.967 220.827 255.5C220.827 259.033 220.01 262.117 218.377 264.75C216.743 267.383 214.443 269.417 211.477 270.85C208.51 272.283 205.11 273 201.277 273H184.727V238ZM200.877 265.1C203.877 265.1 206.277 264.25 208.077 262.55C209.91 260.85 210.827 258.5 210.827 255.5C210.827 252.5 209.91 250.15 208.077 248.45C206.277 246.75 203.877 245.9 200.877 245.9H194.627V265.1H200.877ZM248.997 266.2H234.197L231.447 273H221.347L236.797 238H246.547L262.047 273H251.747L248.997 266.2ZM246.097 258.9L241.597 247.7L237.097 258.9H246.097ZM264.854 238H274.754V265.15H291.454V273H264.854V238ZM318.284 254.75H327.034V269.25C325.034 270.683 322.734 271.783 320.134 272.55C317.534 273.317 314.934 273.7 312.334 273.7C308.667 273.7 305.367 272.933 302.434 271.4C299.501 269.833 297.201 267.667 295.534 264.9C293.867 262.133 293.034 259 293.034 255.5C293.034 252 293.867 248.867 295.534 246.1C297.201 243.333 299.517 241.183 302.484 239.65C305.451 238.083 308.801 237.3 312.534 237.3C315.801 237.3 318.734 237.85 321.334 238.95C323.934 240.05 326.101 241.633 327.834 243.7L321.534 249.4C319.167 246.8 316.334 245.5 313.034 245.5C310.034 245.5 307.617 246.417 305.784 248.25C303.951 250.05 303.034 252.467 303.034 255.5C303.034 257.433 303.451 259.167 304.284 260.7C305.117 262.2 306.284 263.383 307.784 264.25C309.284 265.083 311.001 265.5 312.934 265.5C314.834 265.5 316.617 265.117 318.284 264.35V254.75ZM350.961 273.7C347.261 273.7 343.927 272.917 340.961 271.35C338.027 269.783 335.711 267.617 334.011 264.85C332.344 262.083 331.511 258.967 331.511 255.5C331.511 252.033 332.344 248.917 334.011 246.15C335.711 243.383 338.027 241.217 340.961 239.65C343.927 238.083 347.261 237.3 350.961 237.3C354.661 237.3 357.977 238.083 360.911 239.65C363.877 241.217 366.194 243.383 367.861 246.15C369.561 248.917 370.411 252.033 370.411 255.5C370.411 258.967 369.561 262.083 367.861 264.85C366.194 267.617 363.877 269.783 360.911 271.35C357.977 272.917 354.661 273.7 350.961 273.7ZM350.961 265.5C352.727 265.5 354.327 265.083 355.761 264.25C357.194 263.417 358.327 262.25 359.161 260.75C359.994 259.217 360.411 257.467 360.411 255.5C360.411 253.533 359.994 251.8 359.161 250.3C358.327 248.767 357.194 247.583 355.761 246.75C354.327 245.917 352.727 245.5 350.961 245.5C349.194 245.5 347.594 245.917 346.161 246.75C344.727 247.583 343.594 248.767 342.761 250.3C341.927 251.8 341.511 253.533 341.511 255.5C341.511 257.467 341.927 259.217 342.761 260.75C343.594 262.25 344.727 263.417 346.161 264.25C347.594 265.083 349.194 265.5 350.961 265.5Z" fill="white"/>
<line x1="66.9959" y1="299.003" x2="431.995" y2="298" stroke="#00C4CC" stroke-width="3"/>
<path d="M340.5 212H430.5M67 212H157" stroke="#00C4CC" stroke-width="3"/>
<path d="M216.12 204.9C218.173 204.9 219.64 205.273 220.52 206.02C221.4 206.767 221.84 207.9 221.84 209.42C221.84 210.313 221.62 211.113 221.18 211.82C220.74 212.513 220.073 213.06 219.18 213.46C218.287 213.86 217.193 214.06 215.9 214.06H215.06V215.82C215.06 216.353 215.12 216.753 215.24 217.02C215.36 217.287 215.567 217.473 215.86 217.58C216.167 217.673 216.627 217.72 217.24 217.72C217.24 217.96 217.2 218.193 217.12 218.42C217.04 218.647 216.933 218.84 216.8 219H210.98C210.833 218.84 210.72 218.647 210.64 218.42C210.56 218.193 210.52 217.96 210.52 217.72C210.973 217.72 211.293 217.647 211.48 217.5C211.68 217.34 211.78 217.08 211.78 216.72V207.32C211.78 206.947 211.68 206.687 211.48 206.54C211.293 206.38 210.973 206.3 210.52 206.3C210.52 205.847 210.667 205.427 210.96 205.04C211.853 205.04 213.067 205.007 214.6 204.94C215.373 204.913 215.88 204.9 216.12 204.9ZM218.36 209.36C218.36 208.507 218.16 207.813 217.76 207.28C217.373 206.747 216.72 206.48 215.8 206.48C215.507 206.48 215.26 206.507 215.06 206.56V212.42C215.18 212.447 215.353 212.46 215.58 212.46C216.687 212.46 217.427 212.167 217.8 211.58C218.173 210.993 218.36 210.253 218.36 209.36ZM233.341 215.92C233.487 216.427 233.674 216.807 233.901 217.06C234.141 217.3 234.447 217.447 234.821 217.5V218.5C234.514 218.927 233.934 219.14 233.081 219.14C232.281 219.14 231.647 219.007 231.181 218.74C230.727 218.473 230.387 218.127 230.161 217.7C229.947 217.26 229.747 216.687 229.561 215.98C229.361 215.193 229.147 214.54 228.921 214.02C228.694 213.5 228.401 213.18 228.041 213.06H226.721V216.72C226.721 217.067 226.847 217.327 227.101 217.5C227.354 217.66 227.687 217.74 228.101 217.74C228.101 218.22 227.954 218.64 227.661 219H222.641C222.334 218.627 222.181 218.207 222.181 217.74C222.634 217.74 222.961 217.66 223.161 217.5C223.374 217.34 223.481 217.08 223.481 216.72V207.32C223.481 206.96 223.374 206.7 223.161 206.54C222.947 206.38 222.614 206.3 222.161 206.3C222.161 205.767 222.294 205.347 222.561 205.04C223.441 205.04 224.427 205.013 225.521 204.96C226.481 204.907 227.234 204.88 227.781 204.88C231.594 204.88 233.501 206.167 233.501 208.74C233.501 210.7 232.461 211.893 230.381 212.32C230.981 212.493 231.554 212.913 232.101 213.58C232.647 214.233 233.061 215.013 233.341 215.92ZM227.601 211.68C228.401 211.68 229.027 211.433 229.481 210.94C229.934 210.433 230.161 209.767 230.161 208.94C230.161 208.087 229.961 207.453 229.561 207.04C229.174 206.613 228.554 206.4 227.701 206.4C227.247 206.4 226.921 206.427 226.721 206.48V211.64C226.961 211.667 227.254 211.68 227.601 211.68ZM246.687 214.78C246.687 215.22 246.58 216.007 246.367 217.14C246.154 218.26 245.96 218.987 245.787 219.32C245.574 219.267 245.294 219.16 244.947 219H235.687C235.38 218.6 235.227 218.18 235.227 217.74C235.68 217.74 236.014 217.66 236.227 217.5C236.44 217.34 236.547 217.073 236.547 216.7V207.32C236.547 206.96 236.44 206.7 236.227 206.54C236.027 206.38 235.7 206.3 235.247 206.3C235.247 205.86 235.4 205.44 235.707 205.04H243.467C243.694 204.933 243.954 204.853 244.247 204.8C244.554 204.733 244.834 204.7 245.087 204.7C245.287 205.087 245.5 205.62 245.727 206.3C245.967 206.98 246.087 207.473 246.087 207.78C245.927 207.927 245.654 208.08 245.267 208.24C244.88 208.4 244.547 208.507 244.267 208.56C244.094 208.067 243.82 207.64 243.447 207.28C243.074 206.92 242.64 206.74 242.147 206.74H239.887V210.96H241.327C242.194 210.96 242.627 210.473 242.627 209.5C243.227 209.5 243.767 209.64 244.247 209.92V213.64C244.034 213.773 243.787 213.88 243.507 213.96C243.227 214.027 242.94 214.06 242.647 214.06C242.647 213.553 242.527 213.173 242.287 212.92C242.047 212.667 241.734 212.54 241.347 212.54H239.887V217.24H242.307C242.867 217.24 243.354 217.007 243.767 216.54C244.18 216.06 244.44 215.473 244.547 214.78H246.687ZM251.212 216.72C251.212 217.4 251.698 217.74 252.672 217.74C252.672 218.207 252.518 218.627 252.212 219H248.052C247.758 218.64 247.612 218.22 247.612 217.74C248.078 217.74 248.425 217.66 248.652 217.5C248.878 217.34 248.992 217.08 248.992 216.72V207.32C248.992 206.64 248.505 206.3 247.532 206.3C247.532 206.073 247.572 205.847 247.652 205.62C247.732 205.393 247.838 205.2 247.972 205.04H250.752C251.138 205.04 251.525 205.193 251.912 205.5C252.298 205.793 252.665 206.207 253.012 206.74L257.552 213.92V207.32C257.552 206.96 257.432 206.7 257.192 206.54C256.952 206.38 256.598 206.3 256.132 206.3C256.132 206.06 256.172 205.833 256.252 205.62C256.332 205.393 256.445 205.2 256.592 205.04H260.852C260.998 205.2 261.112 205.393 261.192 205.62C261.272 205.847 261.312 206.073 261.312 206.3C260.858 206.3 260.512 206.38 260.272 206.54C260.045 206.7 259.932 206.96 259.932 207.32V219.12H259.132C258.478 219.12 257.998 219.04 257.692 218.88C257.385 218.707 257.092 218.413 256.812 218L251.212 209.5V216.72ZM264.244 214.08C264.458 215.2 264.878 216.087 265.504 216.74C266.131 217.38 266.871 217.7 267.724 217.7C268.284 217.7 268.698 217.54 268.964 217.22C269.231 216.9 269.364 216.547 269.364 216.16C269.364 215.587 269.111 215.107 268.604 214.72C268.111 214.32 267.398 213.893 266.464 213.44C265.211 212.827 264.264 212.147 263.624 211.4C262.984 210.653 262.664 209.747 262.664 208.68C262.664 207.893 262.858 207.213 263.244 206.64C263.644 206.053 264.184 205.607 264.864 205.3C265.544 204.993 266.304 204.84 267.144 204.84C267.584 204.84 268.058 204.887 268.564 204.98C269.084 205.06 269.498 205.187 269.804 205.36L271.504 204.84C271.744 205.253 271.898 205.827 271.964 206.56C272.031 207.28 272.064 208.113 272.064 209.06V209.36H270.404C269.924 207.413 268.984 206.44 267.584 206.44C267.051 206.44 266.651 206.593 266.384 206.9C266.118 207.193 265.984 207.587 265.984 208.08C265.984 208.48 266.091 208.827 266.304 209.12C266.518 209.413 266.784 209.667 267.104 209.88C267.438 210.08 267.878 210.313 268.424 210.58C269.264 210.993 269.964 211.38 270.524 211.74C271.098 212.1 271.591 212.58 272.004 213.18C272.418 213.767 272.624 214.467 272.624 215.28C272.624 216.027 272.438 216.707 272.064 217.32C271.691 217.92 271.144 218.4 270.424 218.76C269.718 219.12 268.891 219.3 267.944 219.3C266.864 219.3 265.791 219.073 264.724 218.62L263.184 219.3C262.931 218.793 262.711 218.007 262.524 216.94C262.338 215.86 262.244 214.907 262.244 214.08H264.244ZM285.38 216.36C285.513 216.787 285.74 217.12 286.06 217.36C286.38 217.6 286.72 217.72 287.08 217.72C287.08 217.96 287.04 218.193 286.96 218.42C286.88 218.647 286.767 218.84 286.62 219H281.2C281.053 218.84 280.94 218.647 280.86 218.42C280.78 218.193 280.74 217.96 280.74 217.72C281.5 217.72 281.88 217.4 281.88 216.76C281.88 216.493 281.833 216.18 281.74 215.82L281.62 215.4H277.14L277.02 215.82C276.9 216.233 276.84 216.527 276.84 216.7C276.84 217.38 277.267 217.72 278.12 217.72C278.12 217.96 278.08 218.193 278 218.42C277.92 218.647 277.807 218.84 277.66 219H273.2C273.053 218.84 272.94 218.647 272.86 218.42C272.78 218.193 272.74 217.96 272.74 217.72C273.113 217.72 273.453 217.613 273.76 217.4C274.067 217.173 274.293 216.847 274.44 216.42L277.72 206.74C277.187 206.567 276.513 206.48 275.7 206.48C275.7 205.907 275.86 205.427 276.18 205.04H281.66L285.38 216.36ZM281.18 213.84L279.76 208.88C279.64 208.48 279.487 208.14 279.3 207.86L277.58 213.84H281.18Z" fill="white"/>
<path d="M160.8 238V273H150.9V259.35H137.4V273H127.5V238H137.4V251.15H150.9V238H160.8ZM167.783 238H177.683V273H167.783V238ZM184.727 238H201.277C205.11 238 208.51 238.717 211.477 240.15C214.443 241.583 216.743 243.617 218.377 246.25C220.01 248.883 220.827 251.967 220.827 255.5C220.827 259.033 220.01 262.117 218.377 264.75C216.743 267.383 214.443 269.417 211.477 270.85C208.51 272.283 205.11 273 201.277 273H184.727V238ZM200.877 265.1C203.877 265.1 206.277 264.25 208.077 262.55C209.91 260.85 210.827 258.5 210.827 255.5C210.827 252.5 209.91 250.15 208.077 248.45C206.277 246.75 203.877 245.9 200.877 245.9H194.627V265.1H200.877ZM248.997 266.2H234.197L231.447 273H221.347L236.797 238H246.547L262.047 273H251.747L248.997 266.2ZM246.097 258.9L241.597 247.7L237.097 258.9H246.097ZM264.854 238H274.754V265.15H291.454V273H264.854V238ZM318.284 254.75H327.034V269.25C325.034 270.683 322.734 271.783 320.134 272.55C317.534 273.317 314.934 273.7 312.334 273.7C308.667 273.7 305.367 272.933 302.434 271.4C299.501 269.833 297.201 267.667 295.534 264.9C293.867 262.133 293.034 259 293.034 255.5C293.034 252 293.867 248.867 295.534 246.1C297.201 243.333 299.517 241.183 302.484 239.65C305.451 238.083 308.801 237.3 312.534 237.3C315.801 237.3 318.734 237.85 321.334 238.95C323.934 240.05 326.101 241.633 327.834 243.7L321.534 249.4C319.167 246.8 316.334 245.5 313.034 245.5C310.034 245.5 307.617 246.417 305.784 248.25C303.951 250.05 303.034 252.467 303.034 255.5C303.034 257.433 303.451 259.167 304.284 260.7C305.117 262.2 306.284 263.383 307.784 264.25C309.284 265.083 311.001 265.5 312.934 265.5C314.834 265.5 316.617 265.117 318.284 264.35V254.75ZM350.961 273.7C347.261 273.7 343.927 272.917 340.961 271.35C338.027 269.783 335.711 267.617 334.011 264.85C332.344 262.083 331.511 258.967 331.511 255.5C331.511 252.033 332.344 248.917 334.011 246.15C335.711 243.383 338.027 241.217 340.961 239.65C343.927 238.083 347.261 237.3 350.961 237.3C354.661 237.3 357.977 238.083 360.911 239.65C363.877 241.217 366.194 243.383 367.861 246.15C369.561 248.917 370.411 252.033 370.411 255.5C370.411 258.967 369.561 262.083 367.861 264.85C366.194 267.617 363.877 269.783 360.911 271.35C357.977 272.917 354.661 273.7 350.961 273.7ZM350.961 265.5C352.727 265.5 354.327 265.083 355.761 264.25C357.194 263.417 358.327 262.25 359.161 260.75C359.994 259.217 360.411 257.467 360.411 255.5C360.411 253.533 359.994 251.8 359.161 250.3C358.327 248.767 357.194 247.583 355.761 246.75C354.327 245.917 352.727 245.5 350.961 245.5C349.194 245.5 347.594 245.917 346.161 246.75C344.727 247.583 343.594 248.767 342.761 250.3C341.927 251.8 341.511 253.533 341.511 255.5C341.511 257.467 341.927 259.217 342.761 260.75C343.594 262.25 344.727 263.417 346.161 264.25C347.594 265.083 349.194 265.5 350.961 265.5Z" fill="white"/>
<line x1="66.9959" y1="299.003" x2="431.995" y2="298" stroke="#00C4CC" stroke-width="3"/>
<path d="M340.5 212H430.5M67 212H157" stroke="#00C4CC" stroke-width="3"/>
<path d="M216.12 204.9C218.173 204.9 219.64 205.273 220.52 206.02C221.4 206.767 221.84 207.9 221.84 209.42C221.84 210.313 221.62 211.113 221.18 211.82C220.74 212.513 220.073 213.06 219.18 213.46C218.287 213.86 217.193 214.06 215.9 214.06H215.06V215.82C215.06 216.353 215.12 216.753 215.24 217.02C215.36 217.287 215.567 217.473 215.86 217.58C216.167 217.673 216.627 217.72 217.24 217.72C217.24 217.96 217.2 218.193 217.12 218.42C217.04 218.647 216.933 218.84 216.8 219H210.98C210.833 218.84 210.72 218.647 210.64 218.42C210.56 218.193 210.52 217.96 210.52 217.72C210.973 217.72 211.293 217.647 211.48 217.5C211.68 217.34 211.78 217.08 211.78 216.72V207.32C211.78 206.947 211.68 206.687 211.48 206.54C211.293 206.38 210.973 206.3 210.52 206.3C210.52 205.847 210.667 205.427 210.96 205.04C211.853 205.04 213.067 205.007 214.6 204.94C215.373 204.913 215.88 204.9 216.12 204.9ZM218.36 209.36C218.36 208.507 218.16 207.813 217.76 207.28C217.373 206.747 216.72 206.48 215.8 206.48C215.507 206.48 215.26 206.507 215.06 206.56V212.42C215.18 212.447 215.353 212.46 215.58 212.46C216.687 212.46 217.427 212.167 217.8 211.58C218.173 210.993 218.36 210.253 218.36 209.36ZM233.341 215.92C233.487 216.427 233.674 216.807 233.901 217.06C234.141 217.3 234.447 217.447 234.821 217.5V218.5C234.514 218.927 233.934 219.14 233.081 219.14C232.281 219.14 231.647 219.007 231.181 218.74C230.727 218.473 230.387 218.127 230.161 217.7C229.947 217.26 229.747 216.687 229.561 215.98C229.361 215.193 229.147 214.54 228.921 214.02C228.694 213.5 228.401 213.18 228.041 213.06H226.721V216.72C226.721 217.067 226.847 217.327 227.101 217.5C227.354 217.66 227.687 217.74 228.101 217.74C228.101 218.22 227.954 218.64 227.661 219H222.641C222.334 218.627 222.181 218.207 222.181 217.74C222.634 217.74 222.961 217.66 223.161 217.5C223.374 217.34 223.481 217.08 223.481 216.72V207.32C223.481 206.96 223.374 206.7 223.161 206.54C222.947 206.38 222.614 206.3 222.161 206.3C222.161 205.767 222.294 205.347 222.561 205.04C223.441 205.04 224.427 205.013 225.521 204.96C226.481 204.907 227.234 204.88 227.781 204.88C231.594 204.88 233.501 206.167 233.501 208.74C233.501 210.7 232.461 211.893 230.381 212.32C230.981 212.493 231.554 212.913 232.101 213.58C232.647 214.233 233.061 215.013 233.341 215.92ZM227.601 211.68C228.401 211.68 229.027 211.433 229.481 210.94C229.934 210.433 230.161 209.767 230.161 208.94C230.161 208.087 229.961 207.453 229.561 207.04C229.174 206.613 228.554 206.4 227.701 206.4C227.247 206.4 226.921 206.427 226.721 206.48V211.64C226.961 211.667 227.254 211.68 227.601 211.68ZM246.687 214.78C246.687 215.22 246.58 216.007 246.367 217.14C246.154 218.26 245.96 218.987 245.787 219.32C245.574 219.267 245.294 219.16 244.947 219H235.687C235.38 218.6 235.227 218.18 235.227 217.74C235.68 217.74 236.014 217.66 236.227 217.5C236.44 217.34 236.547 217.073 236.547 216.7V207.32C236.547 206.96 236.44 206.7 236.227 206.54C236.027 206.38 235.7 206.3 235.247 206.3C235.247 205.86 235.4 205.44 235.707 205.04H243.467C243.694 204.933 243.954 204.853 244.247 204.8C244.554 204.733 244.834 204.7 245.087 204.7C245.287 205.087 245.5 205.62 245.727 206.3C245.967 206.98 246.087 207.473 246.087 207.78C245.927 207.927 245.654 208.08 245.267 208.24C244.88 208.4 244.547 208.507 244.267 208.56C244.094 208.067 243.82 207.64 243.447 207.28C243.074 206.92 242.64 206.74 242.147 206.74H239.887V210.96H241.327C242.194 210.96 242.627 210.473 242.627 209.5C243.227 209.5 243.767 209.64 244.247 209.92V213.64C244.034 213.773 243.787 213.88 243.507 213.96C243.227 214.027 242.94 214.06 242.647 214.06C242.647 213.553 242.527 213.173 242.287 212.92C242.047 212.667 241.734 212.54 241.347 212.54H239.887V217.24H242.307C242.867 217.24 243.354 217.007 243.767 216.54C244.18 216.06 244.44 215.473 244.547 214.78H246.687ZM251.212 216.72C251.212 217.4 251.698 217.74 252.672 217.74C252.672 218.207 252.518 218.627 252.212 219H248.052C247.758 218.64 247.612 218.22 247.612 217.74C248.078 217.74 248.425 217.66 248.652 217.5C248.878 217.34 248.992 217.08 248.992 216.72V207.32C248.992 206.64 248.505 206.3 247.532 206.3C247.532 206.073 247.572 205.847 247.652 205.62C247.732 205.393 247.838 205.2 247.972 205.04H250.752C251.138 205.04 251.525 205.193 251.912 205.5C252.298 205.793 252.665 206.207 253.012 206.74L257.552 213.92V207.32C257.552 206.96 257.432 206.7 257.192 206.54C256.952 206.38 256.598 206.3 256.132 206.3C256.132 206.06 256.172 205.833 256.252 205.62C256.332 205.393 256.445 205.2 256.592 205.04H260.852C260.998 205.2 261.112 205.393 261.192 205.62C261.272 205.847 261.312 206.073 261.312 206.3C260.858 206.3 260.512 206.38 260.272 206.54C260.045 206.7 259.932 206.96 259.932 207.32V219.12H259.132C258.478 219.12 257.998 219.04 257.692 218.88C257.385 218.707 257.092 218.413 256.812 218L251.212 209.5V216.72ZM264.244 214.08C264.458 215.2 264.878 216.087 265.504 216.74C266.131 217.38 266.871 217.7 267.724 217.7C268.284 217.7 268.698 217.54 268.964 217.22C269.231 216.9 269.364 216.547 269.364 216.16C269.364 215.587 269.111 215.107 268.604 214.72C268.111 214.32 267.398 213.893 266.464 213.44C265.211 212.827 264.264 212.147 263.624 211.4C262.984 210.653 262.664 209.747 262.664 208.68C262.664 207.893 262.858 207.213 263.244 206.64C263.644 206.053 264.184 205.607 264.864 205.3C265.544 204.993 266.304 204.84 267.144 204.84C267.584 204.84 268.058 204.887 268.564 204.98C269.084 205.06 269.498 205.187 269.804 205.36L271.504 204.84C271.744 205.253 271.898 205.827 271.964 206.56C272.031 207.28 272.064 208.113 272.064 209.06V209.36H270.404C269.924 207.413 268.984 206.44 267.584 206.44C267.051 206.44 266.651 206.593 266.384 206.9C266.118 207.193 265.984 207.587 265.984 208.08C265.984 208.48 266.091 208.827 266.304 209.12C266.518 209.413 266.784 209.667 267.104 209.88C267.438 210.08 267.878 210.313 268.424 210.58C269.264 210.993 269.964 211.38 270.524 211.74C271.098 212.1 271.591 212.58 272.004 213.18C272.418 213.767 272.624 214.467 272.624 215.28C272.624 216.027 272.438 216.707 272.064 217.32C271.691 217.92 271.144 218.4 270.424 218.76C269.718 219.12 268.891 219.3 267.944 219.3C266.864 219.3 265.791 219.073 264.724 218.62L263.184 219.3C262.931 218.793 262.711 218.007 262.524 216.94C262.338 215.86 262.244 214.907 262.244 214.08H264.244ZM285.38 216.36C285.513 216.787 285.74 217.12 286.06 217.36C286.38 217.6 286.72 217.72 287.08 217.72C287.08 217.96 287.04 218.193 286.96 218.42C286.88 218.647 286.767 218.84 286.62 219H281.2C281.053 218.84 280.94 218.647 280.86 218.42C280.78 218.193 280.74 217.96 280.74 217.72C281.5 217.72 281.88 217.4 281.88 216.76C281.88 216.493 281.833 216.18 281.74 215.82L281.62 215.4H277.14L277.02 215.82C276.9 216.233 276.84 216.527 276.84 216.7C276.84 217.38 277.267 217.72 278.12 217.72C278.12 217.96 278.08 218.193 278 218.42C277.92 218.647 277.807 218.84 277.66 219H273.2C273.053 218.84 272.94 218.647 272.86 218.42C272.78 218.193 272.74 217.96 272.74 217.72C273.113 217.72 273.453 217.613 273.76 217.4C274.067 217.173 274.293 216.847 274.44 216.42L277.72 206.74C277.187 206.567 276.513 206.48 275.7 206.48C275.7 205.907 275.86 205.427 276.18 205.04H281.66L285.38 216.36ZM281.18 213.84L279.76 208.88C279.64 208.48 279.487 208.14 279.3 207.86L277.58 213.84H281.18Z" fill="white"/>
</svg>
